<svg width="476" height="122" viewBox="0 0 476 122" fill="none" xmlns="http://www.w3.org/2000/svg">
<path d="M52.16 90H30.528L0.448 5.52H22.016L41.344 65.616L60.672 5.52H82.24L52.16 90ZM92.391 90V37.456H111.847V90H92.391ZM102.375 26.64C99.303 26.64 96.7003 25.5733 94.567 23.44C92.4337 21.264 91.367 18.6827 91.367 15.696C91.367 12.7093 92.4337 10.128 94.567 7.952C96.743 5.73333 99.3457 4.62399 102.375 4.62399C104.38 4.62399 106.215 5.13599 107.879 6.16C109.543 7.14133 110.887 8.464 111.911 10.128C112.935 11.792 113.447 13.648 113.447 15.696C113.447 18.6827 112.359 21.264 110.183 23.44C108.007 25.5733 105.404 26.64 102.375 26.64ZM123.843 37.456H175.875L149.635 76.432H173.827V90H119.619L145.795 50.96H123.843V37.456ZM255.007 35.92C258.975 35.92 262.474 36.752 265.503 38.416C268.532 40.0373 270.9 42.5547 272.607 45.968C274.356 49.3813 275.231 53.776 275.231 59.152V90H256.095V62.096C256.095 58.4267 255.54 55.4613 254.431 53.2C253.322 50.9387 251.124 49.808 247.839 49.808C245.876 49.808 244.148 50.32 242.655 51.344C241.162 52.368 240.01 53.7973 239.199 55.632C238.388 57.424 237.983 59.5787 237.983 62.096V90H220.127V62.096C220.127 58.4267 219.508 55.4613 218.271 53.2C217.076 50.9387 214.943 49.808 211.871 49.808C209.908 49.808 208.18 50.32 206.687 51.344C205.194 52.3253 204.042 53.7333 203.231 55.568C202.463 57.36 202.079 59.536 202.079 62.096V90H182.751V37.456H202.079V44.944C202.591 43.6213 203.7 42.2773 205.407 40.912C207.156 39.504 209.311 38.3307 211.871 37.392C214.431 36.4107 217.14 35.92 219.999 35.92C223.114 35.92 225.716 36.3893 227.807 37.328C229.898 38.224 231.604 39.44 232.927 40.976C234.292 42.512 235.38 44.176 236.191 45.968C236.788 44.432 237.962 42.896 239.711 41.36C241.503 39.7813 243.722 38.48 246.367 37.456C249.055 36.432 251.935 35.92 255.007 35.92ZM304.933 61.776C304.933 65.9573 305.722 69.3067 307.301 71.824C308.88 74.2987 311.525 75.536 315.237 75.536C319.034 75.536 321.701 74.2987 323.237 71.824C324.816 69.3067 325.605 65.9573 325.605 61.776V37.456H344.805V63.824C344.805 69.456 343.632 74.3627 341.285 78.544C338.981 82.6827 335.632 85.8827 331.237 88.144C326.842 90.4053 321.509 91.536 315.237 91.536C309.008 91.536 303.696 90.4053 299.301 88.144C294.906 85.8827 291.557 82.6827 289.253 78.544C286.949 74.3627 285.797 69.456 285.797 63.824V37.456H304.933V61.776ZM355.218 37.456H407.25L381.01 76.432H405.202V90H350.994L377.17 50.96H355.218V37.456ZM429.614 67.856C429.742 69.7333 430.339 71.3973 431.406 72.848C432.473 74.2987 433.945 75.4507 435.822 76.304C437.742 77.1147 440.003 77.52 442.606 77.52C445.081 77.52 447.299 77.264 449.262 76.752C451.267 76.24 452.995 75.6 454.446 74.832C455.939 74.064 457.091 73.2747 457.902 72.464L465.454 84.496C464.387 85.648 462.873 86.7787 460.91 87.888C458.99 88.9547 456.451 89.8293 453.294 90.512C450.137 91.1947 446.147 91.536 441.326 91.536C435.523 91.536 430.361 90.448 425.838 88.272C421.315 86.096 417.753 82.896 415.15 78.672C412.547 74.448 411.246 69.2853 411.246 63.184C411.246 58.064 412.355 53.456 414.574 49.36C416.835 45.2213 420.099 41.9573 424.366 39.568C428.633 37.136 433.774 35.92 439.79 35.92C445.507 35.92 450.457 36.9653 454.638 39.056C458.862 41.1467 462.105 44.2613 464.366 48.4C466.67 52.496 467.822 57.616 467.822 63.76C467.822 64.1013 467.801 64.784 467.758 65.808C467.758 66.832 467.715 67.5147 467.63 67.856H429.614ZM449.518 57.68C449.475 56.3147 449.113 54.9707 448.43 53.648C447.747 52.2827 446.723 51.1733 445.358 50.32C443.993 49.424 442.243 48.976 440.11 48.976C437.977 48.976 436.163 49.4027 434.67 50.256C433.219 51.0667 432.11 52.1333 431.342 53.456C430.574 54.7787 430.147 56.1867 430.062 57.68H449.518Z" fill="#4F46E5"/>
</svg>
